<svg width="42.000000" height="38.000000" viewBox="0 0 42 38" fill="none" xmlns="http://www.w3.org/2000/svg" xmlns:xlink="http://www.w3.org/1999/xlink">
	<desc>
			Created with Pixso.
	</desc>
	<defs>
		<clipPath id="clip8_487">
			<rect id="Logo" width="42.000000" height="38.000000" fill="white" fill-opacity="0"/>
		</clipPath>
	</defs>
	<rect id="Logo" width="42.000000" height="38.000000" fill="#FFFFFF" fill-opacity="0"/>
	<g clip-path="url(#clip8_487)">
		<path id="Vector" d="M5.74658 28.7258C7.28674 29.8003 9.78381 29.8003 11.3241 28.7258C12.8641 27.6516 12.8641 25.9099 11.3241 24.8354C9.78381 23.7612 7.28674 23.7612 5.74658 24.8354C4.20642 25.9099 4.20642 27.6516 5.74658 28.7258Z" fill="#A4074D" fill-opacity="1.000000" fill-rule="nonzero"/>
		<path id="Vector" d="M21.7322 14.1372C24.0425 15.7485 27.7881 15.7485 30.0984 14.1372C32.4086 12.5256 32.4086 9.91309 30.0984 8.30151C27.7881 6.69019 24.0425 6.69019 21.7322 8.30151C19.422 9.91309 19.422 12.5256 21.7322 14.1372Z" fill="#A4074D" fill-opacity="1.000000" fill-rule="nonzero"/>
		<path id="Vector" d="M13.2463 21.4316C15.1716 22.7744 18.293 22.7744 20.2181 21.4316C22.1434 20.0886 22.1434 17.9116 20.2181 16.5686C18.293 15.2258 15.1716 15.2258 13.2463 16.5686C11.3212 17.9116 11.3212 20.0886 13.2463 21.4316Z" fill="#A4074D" fill-opacity="1.000000" fill-rule="nonzero"/>
		<path id="Vector" d="M0.866333 20.4587C2.02148 21.2646 3.89429 21.2646 5.04944 20.4587C6.20459 19.6531 6.20459 18.3469 5.04944 17.541C3.89429 16.7354 2.02148 16.7354 0.866333 17.541C-0.288818 18.3469 -0.288818 19.6531 0.866333 20.4587Z" fill="#A4074D" fill-opacity="1.000000" fill-rule="nonzero"/>
		<path id="Vector" d="M13.2463 5.87012C15.1716 7.21289 18.293 7.21289 20.2181 5.87012C22.1434 4.5271 22.1434 2.3501 20.2181 1.00708C18.293 -0.335693 15.1716 -0.335693 13.2463 1.00708C11.3212 2.3501 11.3212 4.5271 13.2463 5.87012Z" fill="#A4074D" fill-opacity="1.000000" fill-rule="nonzero"/>
		<path id="Vector" d="M5.74658 13.1646C7.28674 14.2388 9.78381 14.2388 11.3241 13.1646C12.8641 12.0903 12.8641 10.3484 11.3241 9.27417C9.78381 8.19995 7.28674 8.19995 5.74658 9.27417C4.20642 10.3484 4.20642 12.0903 5.74658 13.1646Z" fill="#A4074D" fill-opacity="1.000000" fill-rule="nonzero"/>
		<path id="Vector" d="M13.2463 36.9929C15.1716 38.3357 18.293 38.3357 20.2181 36.9929C22.1434 35.6499 22.1434 33.4729 20.2181 32.1299C18.293 30.7871 15.1716 30.7871 13.2463 32.1299C11.3212 33.4729 11.3212 35.6499 13.2463 36.9929Z" fill="#A4074D" fill-opacity="1.000000" fill-rule="nonzero"/>
		<path id="Vector" d="M31.9011 21.918C34.2114 23.5293 37.9572 23.5293 40.2673 21.918C42.5776 20.3064 42.5776 17.6938 40.2673 16.0825C37.9572 14.4709 34.2114 14.4709 31.9011 16.0825C29.5909 17.6938 29.5909 20.3064 31.9011 21.918Z" fill="#A4074D" fill-opacity="1.000000" fill-rule="nonzero"/>
		<path id="Vector" d="M21.7322 29.6982C24.0425 31.3098 27.7881 31.3098 30.0984 29.6982C32.4086 28.0869 32.4086 25.4744 30.0984 23.8628C27.7881 22.2515 24.0425 22.2515 21.7322 23.8628C19.422 25.4744 19.422 28.0869 21.7322 29.6982Z" fill="#A4074D" fill-opacity="1.000000" fill-rule="nonzero"/>
	</g>
</svg>
